<svg width="22" height="22" viewBox="0 0 22 22" fill="none" xmlns="http://www.w3.org/2000/svg">
<path d="M0.833374 4.99998C0.833374 3.03554 0.833374 2.05331 1.44449 1.44442C2.05226 0.833313 3.03449 0.833313 5.00004 0.833313C6.9656 0.833313 7.94671 0.833313 8.5556 1.44442C9.16671 2.05331 9.16671 3.03554 9.16671 4.99998C9.16671 6.96442 9.16671 7.94665 8.5556 8.55554C7.94671 9.16665 6.96449 9.16665 5.00004 9.16665C3.0356 9.16665 2.05337 9.16665 1.44449 8.55554C0.833374 7.94776 0.833374 6.96554 0.833374 4.99998ZM0.833374 16.6744C0.833374 14.71 0.833374 13.7278 1.44449 13.1189C2.05337 12.5078 3.0356 12.5078 5.00004 12.5078C6.96449 12.5078 7.94671 12.5078 8.5556 13.1189C9.16671 13.7278 9.16671 14.71 9.16671 16.6744C9.16671 18.6389 9.16671 19.6211 8.5556 20.23C7.94671 20.8411 6.96449 20.8411 5.00004 20.8411C3.0356 20.8411 2.05337 20.8411 1.44449 20.23C0.833374 19.6222 0.833374 18.6389 0.833374 16.6744ZM12.5 4.99998C12.5 3.03554 12.5 2.05331 13.1112 1.44442C13.72 0.833313 14.7023 0.833313 16.6667 0.833313C18.6312 0.833313 19.6134 0.833313 20.2223 1.44442C20.8334 2.05331 20.8334 3.03554 20.8334 4.99998C20.8334 6.96442 20.8334 7.94665 20.2223 8.55554C19.6134 9.16665 18.6312 9.16665 16.6667 9.16665C14.7023 9.16665 13.72 9.16665 13.1112 8.55554C12.5 7.94665 12.5 6.96442 12.5 4.99998ZM12.5 16.6744C12.5 14.71 12.5 13.7278 13.1112 13.1189C13.72 12.5078 14.7023 12.5078 16.6667 12.5078C18.6312 12.5078 19.6134 12.5078 20.2223 13.1189C20.8334 13.7278 20.8334 14.71 20.8334 16.6744C20.8334 18.6389 20.8334 19.6211 20.2223 20.23C19.6134 20.8411 18.6312 20.8411 16.6667 20.8411C14.7023 20.8411 13.72 20.8411 13.1112 20.23C12.5 19.6211 12.5 18.6389 12.5 16.6744Z" stroke="black" stroke-width="1.66667" stroke-linecap="round" stroke-linejoin="round"/>
</svg>
