<svg width="12" height="13" viewBox="0 0 12 13" fill="none" xmlns="http://www.w3.org/2000/svg">
<path d="M0.450439 6.45078H7.79666M10.3897 6.45078H11.4504M10.3897 6.45078C10.3897 6.84555 10.2531 7.22415 10.01 7.50329C9.76694 7.78244 9.43724 7.93926 9.09347 7.93926C8.74969 7.93926 8.41999 7.78244 8.1769 7.50329C7.93382 7.22415 7.79725 6.84555 7.79725 6.45078C7.79725 6.05601 7.93382 5.67741 8.1769 5.39827C8.41999 5.11913 8.74969 4.9623 9.09347 4.9623C9.43724 4.9623 9.76694 5.11913 10.01 5.39827C10.2531 5.67741 10.3897 6.05601 10.3897 6.45078ZM0.450439 1.9396H3.86817M3.86817 1.9396C3.86817 1.54474 4.00506 1.16571 4.24821 0.886505C4.49135 0.607298 4.82112 0.45044 5.16498 0.45044C5.50876 0.45044 5.83846 0.607944 6.08154 0.887087C6.32463 1.16623 6.4612 1.54483 6.4612 1.9396M3.86817 1.9396C3.86817 2.33446 4.00506 2.71281 4.24821 2.99201C4.49135 3.27122 4.82112 3.42808 5.16498 3.42808C5.50876 3.42808 5.83846 3.27126 6.08154 2.99211C6.32463 2.71297 6.4612 2.33437 6.4612 1.9396M6.4612 1.9396H11.4504M0.450439 10.962H2.29666M4.88968 10.962H11.4504M4.88968 10.962C4.88968 11.3567 4.75312 11.7353 4.51003 12.0145C4.26694 12.2936 3.93724 12.4504 3.59347 12.4504C3.42325 12.4504 3.25469 12.4119 3.09743 12.3371C2.94016 12.2623 2.79727 12.1527 2.6769 12.0145C2.55654 11.8763 2.46106 11.7122 2.39592 11.5316C2.33078 11.351 2.29725 11.1574 2.29725 10.962C2.29725 10.7665 2.33078 10.5729 2.39592 10.3923C2.46106 10.2118 2.55654 10.0477 2.6769 9.90945C2.79727 9.77123 2.94016 9.66159 3.09743 9.58679C3.25469 9.51198 3.42325 9.47348 3.59347 9.47348C3.93724 9.47348 4.26694 9.63031 4.51003 9.90945C4.75312 10.1886 4.88968 10.5672 4.88968 10.962Z" stroke="black" stroke-opacity="0.6" stroke-width="0.900901" stroke-miterlimit="10" stroke-linecap="round"/>
</svg>
