<svg width="16" height="16" viewBox="0 0 16 16" fill="none" xmlns="http://www.w3.org/2000/svg">
<path d="M10.1435 4.94475C9.6211 4.94475 9.19759 4.52123 9.19759 3.9988C9.19759 3.47637 9.6211 3.05286 10.1435 3.05286C10.666 3.05286 11.0895 3.47637 11.0895 3.9988C11.0895 4.52123 10.666 4.94475 10.1435 4.94475Z" fill="black" fill-opacity="0.6"/>
<path d="M10.1432 3.43079C9.82989 3.43097 9.57581 3.6858 9.57581 3.99915C9.57599 4.31233 9.83 4.56634 10.1432 4.56653C10.4565 4.56653 10.7114 4.31245 10.7115 3.99915C10.7115 3.68569 10.4566 3.43079 10.1432 3.43079Z" stroke="black" stroke-opacity="0.6" stroke-width="0.756757"/>
<path d="M6.73966 4.32939C6.21723 4.32939 5.79372 3.90588 5.79372 3.38345C5.79372 2.86101 6.21723 2.4375 6.73966 2.4375C7.26209 2.4375 7.68561 2.86101 7.68561 3.38345C7.68561 3.90588 7.26209 4.32939 6.73966 4.32939Z" fill="black" fill-opacity="0.6"/>
<path d="M6.73932 2.81543C6.42602 2.81562 6.17194 3.07044 6.17194 3.38379C6.17212 3.69698 6.42613 3.95099 6.73932 3.95117C7.05266 3.95117 7.30749 3.69709 7.30768 3.38379C7.30768 3.07033 7.05278 2.81543 6.73932 2.81543Z" stroke="black" stroke-opacity="0.6" stroke-width="0.756757"/>
<path d="M4.08952 6.38713C3.56708 6.38713 3.14357 5.96362 3.14357 5.44118C3.14357 4.91875 3.56708 4.49524 4.08952 4.49524C4.61195 4.49524 5.03546 4.91875 5.03546 5.44118C5.03546 5.96362 4.61195 6.38713 4.08952 6.38713Z" fill="black" fill-opacity="0.6"/>
<path d="M4.08917 4.87317C3.77587 4.87335 3.52179 5.12818 3.52179 5.44153C3.52197 5.75472 3.77599 6.00873 4.08917 6.00891C4.40252 6.00891 4.65735 5.75483 4.65753 5.44153C4.65753 5.12807 4.40263 4.87317 4.08917 4.87317Z" stroke="black" stroke-opacity="0.6" stroke-width="0.756757"/>
<path d="M3.35624 9.57756C2.83381 9.57756 2.41029 9.15405 2.41029 8.63161C2.41029 8.10918 2.83381 7.68567 3.35624 7.68567C3.87867 7.68567 4.30219 8.10918 4.30219 8.63161C4.30219 9.15405 3.87867 9.57756 3.35624 9.57756Z" fill="black" fill-opacity="0.6"/>
<path d="M3.3559 8.0636C3.04259 8.06378 2.78851 8.31861 2.78851 8.63196C2.7887 8.94514 3.04271 9.19916 3.3559 9.19934C3.66924 9.19934 3.92407 8.94526 3.92426 8.63196C3.92426 8.3185 3.66935 8.0636 3.3559 8.0636Z" stroke="black" stroke-opacity="0.6" stroke-width="0.756757"/>
<path d="M5.03544 12.4472C4.51301 12.4472 4.08949 12.0237 4.08949 11.5012C4.08949 10.9788 4.51301 10.5553 5.03544 10.5553C5.55787 10.5553 5.98138 10.9788 5.98138 11.5012C5.98138 12.0237 5.55787 12.4472 5.03544 12.4472Z" fill="black" fill-opacity="0.6"/>
<path d="M5.0351 10.9332C4.72179 10.9334 4.46771 11.1882 4.46771 11.5016C4.4679 11.8148 4.72191 12.0688 5.0351 12.069C5.34844 12.069 5.60327 11.8149 5.60345 11.5016C5.60345 11.1881 5.34855 10.9332 5.0351 10.9332Z" stroke="black" stroke-opacity="0.6" stroke-width="0.756757"/>
<path d="M14.5676 7.56763C14.5676 6.18316 14.157 4.82978 13.3879 3.67864C12.6187 2.52749 11.5254 1.63029 10.2464 1.10047C8.96727 0.57066 7.5598 0.432037 6.20194 0.702133C4.84407 0.97223 3.59679 1.63892 2.61782 2.61788C1.63885 3.59685 0.972169 4.84413 0.702072 6.202C0.431976 7.55986 0.570599 8.96733 1.10041 10.2464C1.63023 11.5255 2.52743 12.6187 3.67858 13.3879C4.82972 14.1571 6.1831 14.5676 7.56757 14.5676C8.56497 14.5676 9.25059 13.599 9.33005 12.6046L9.41859 11.4899C9.46165 10.9511 9.69549 10.4454 10.0781 10.0637C10.4607 9.68192 10.9669 9.44918 11.5057 9.4073L12.7551 9.30968C13.7238 9.23401 14.5676 8.53855 14.5676 7.56763Z" stroke="black" stroke-opacity="0.6" stroke-width="1.13513" stroke-linejoin="round"/>
</svg>
