<svg width="12" height="15" viewBox="0 0 12 15" fill="none" xmlns="http://www.w3.org/2000/svg">
<path d="M3.40072 5.62391V2.73503C3.40072 2.16039 3.6291 1.60929 4.03561 1.20296C4.44212 0.796633 4.99347 0.568359 5.56836 0.568359C6.14325 0.568359 6.6946 0.796633 7.10111 1.20296C7.50762 1.60929 7.736 2.16039 7.736 2.73503V5.62391M9.90364 4.17947L10.5662 12.7905C10.5739 12.8898 10.5609 12.9895 10.5282 13.0835C10.4955 13.1775 10.4437 13.2637 10.376 13.3368C10.3084 13.4098 10.2264 13.4681 10.1351 13.5079C10.0439 13.5478 9.94541 13.5684 9.84583 13.5684H1.29088C1.19131 13.5684 1.09281 13.5478 1.00157 13.5079C0.910332 13.4681 0.828317 13.4098 0.760675 13.3368C0.693033 13.2637 0.641223 13.1775 0.608498 13.0835C0.575772 12.9895 0.562838 12.8898 0.570505 12.7905L1.23308 4.17947H9.90364Z" stroke="#040404" stroke-opacity="0.6" stroke-width="1.13674" stroke-linecap="round" stroke-linejoin="round"/>
<path d="M6.42365 8.25146V10.2573L4.8465 10.5444V7.90479L6.42365 8.25146Z" fill="#040404" fill-opacity="0.6" stroke="black" stroke-width="0.278386"/>
<path d="M7.14319 8.18994L8.79846 8.55225C8.83293 8.55979 8.85803 8.59118 8.85803 8.62646V9.88525C8.8579 9.92093 8.83247 9.95149 8.79749 9.9585L7.14124 10.2847C7.09505 10.2936 7.05254 10.2585 7.05237 10.2114V8.26318C7.05261 8.21545 7.09649 8.17974 7.14319 8.18994Z" fill="#040404" fill-opacity="0.6" stroke="black" stroke-width="0.0500604"/>
<path d="M2.5083 7.25269L4.16357 7.73608C4.19561 7.74543 4.21826 7.77498 4.21826 7.80835V10.7019C4.21826 10.7362 4.19487 10.7667 4.16162 10.7751L2.50635 11.198C2.45886 11.2101 2.4126 11.1738 2.4126 11.1248V7.32495C2.4126 7.2749 2.46025 7.23869 2.5083 7.25269Z" fill="#040404" fill-opacity="0.6" stroke="black" stroke-width="0.0500604"/>
</svg>
