<svg width="24" height="30" viewBox="0 0 24 30" fill="none" xmlns="http://www.w3.org/2000/svg">
<path fill-rule="evenodd" clip-rule="evenodd" d="M12.7922 28.3438L12.7762 28.3464L12.6816 28.3931L12.6549 28.3984L12.6362 28.3931L12.5416 28.3451C12.5273 28.3415 12.5167 28.3442 12.5096 28.3531L12.5042 28.3664L12.4816 28.9371L12.4882 28.9638L12.5016 28.9811L12.6402 29.0798L12.6602 29.0851L12.6762 29.0798L12.8149 28.9811L12.8309 28.9598L12.8362 28.9371L12.8136 28.3678C12.81 28.3535 12.8029 28.3455 12.7922 28.3438ZM13.1442 28.1931L13.1256 28.1958L12.8802 28.3198L12.8669 28.3331L12.8629 28.3478L12.8869 28.9211L12.8936 28.9371L12.9042 28.9478L13.1722 29.0704C13.1891 29.0749 13.202 29.0713 13.2109 29.0598L13.2162 29.0411L13.1709 28.2224C13.1665 28.2055 13.1576 28.1958 13.1442 28.1931ZM12.1909 28.1958C12.185 28.1922 12.178 28.191 12.1713 28.1925C12.1646 28.194 12.1587 28.198 12.1549 28.2038L12.1469 28.2224L12.1016 29.0411C12.1025 29.0571 12.11 29.0678 12.1242 29.0731L12.1442 29.0704L12.4122 28.9464L12.4256 28.9358L12.4296 28.9211L12.4536 28.3478L12.4496 28.3318L12.4362 28.3184L12.1909 28.1958Z" fill="black" fill-opacity="0.8"/>
<path fill-rule="evenodd" clip-rule="evenodd" d="M15.04 7.73585e-08C15.5997 0.000145146 16.1451 0.176381 16.5991 0.503744C17.053 0.831106 17.3925 1.293 17.5693 1.824L18.2933 4H22.6667C23.0203 4 23.3594 4.14048 23.6095 4.39052C23.8595 4.64057 24 4.97971 24 5.33333C24 5.68695 23.8595 6.02609 23.6095 6.27614C23.3594 6.52619 23.0203 6.66667 22.6667 6.66667H21.3333V22.6667C21.3333 23.7275 20.9119 24.7449 20.1618 25.4951C19.4116 26.2452 18.3942 26.6667 17.3333 26.6667H6.66667C5.6058 26.6667 4.58839 26.2452 3.83824 25.4951C3.08809 24.7449 2.66667 23.7275 2.66667 22.6667V6.66667H1.33333C0.979711 6.66667 0.640573 6.52619 0.390524 6.27614C0.140476 6.02609 0 5.68695 0 5.33333C0 4.97971 0.140476 4.64057 0.390524 4.39052C0.640573 4.14048 0.979711 4 1.33333 4H5.70667L6.43067 1.824C6.6076 1.29278 6.94725 0.830736 7.40147 0.503353C7.85568 0.175971 8.40143 -0.000134748 8.96133 7.73585e-08H15.04ZM18.6667 6.66667H5.33333V22.6667C5.33333 23.0203 5.47381 23.3594 5.72386 23.6095C5.97391 23.8595 6.31305 24 6.66667 24H17.3333C17.687 24 18.0261 23.8595 18.2761 23.6095C18.5262 23.3594 18.6667 23.0203 18.6667 22.6667V6.66667ZM15.04 2.66667H8.96L8.516 4H15.484L15.04 2.66667Z" fill="black" fill-opacity="0.8"/>
</svg>
