<svg width="120" height="108" viewBox="0 0 120 108" fill="none" xmlns="http://www.w3.org/2000/svg">
<path d="M56.45 7.43713C56.9221 7.16747 57.4563 7.02563 58 7.02563C58.5437 7.02563 59.0779 7.16747 59.55 7.43713L82.9875 20.8309C83.4658 21.1041 83.8634 21.4989 84.14 21.9752C84.4165 22.4516 84.5623 22.9926 84.5625 23.5434V48.5121L106.425 61.0121C106.901 61.2843 107.298 61.6771 107.574 62.1511C107.851 62.625 107.998 63.1634 108 63.7121V90.4996C108 91.0505 107.854 91.5914 107.577 92.0678C107.301 92.5441 106.903 92.9389 106.425 93.2121L82.9875 106.606C82.5154 106.876 81.9812 107.017 81.4375 107.017C80.8938 107.017 80.3596 106.876 79.8875 106.606L58 94.1059L36.1125 106.612C35.6404 106.882 35.1062 107.024 34.5625 107.024C34.0188 107.024 33.4846 106.882 33.0125 106.612L9.575 93.2184C9.09671 92.9452 8.69912 92.5504 8.42253 92.074C8.14595 91.5977 8.00018 91.0567 8 90.5059V63.7184C8.00018 63.1676 8.14595 62.6266 8.42253 62.1502C8.69912 61.6739 9.09671 61.2791 9.575 61.0059L31.4375 48.5121V23.5434C31.4377 22.9926 31.5834 22.4516 31.86 21.9752C32.1366 21.4989 32.5342 21.1041 33.0125 20.8309L56.45 7.43713ZM34.5625 53.9246L17.425 63.7184L34.5625 73.5121L51.7 63.7184L34.5625 53.9246ZM54.875 69.1059L37.6875 78.9246V98.5121L54.875 88.6934V69.1059ZM61.125 88.6934L78.3125 98.5121V78.9246L61.125 69.1059V88.6934ZM64.3 63.7184L81.4375 73.5121L98.575 63.7184L81.4375 53.9246L64.3 63.7184ZM78.3125 48.5121V28.9246L61.125 38.7496V58.3371L78.3125 48.5121ZM54.875 58.3371V38.7496L37.6875 28.9246V48.5121L54.875 58.3371ZM40.8625 23.5434L58 33.3371L75.1375 23.5434L58 13.7496L40.8625 23.5434ZM101.75 69.1059L84.5625 78.9246V98.5121L101.75 88.6934V69.1059ZM31.4375 98.5121V78.9246L14.25 69.1059V88.6934L31.4375 98.5121Z" fill="black"/>
<path d="M82.163 20.384L59.5055 7.47261L65.5015 4.08479L88.6496 17.1453L82.163 20.384Z" fill="white" fill-opacity="0.95" stroke="black" stroke-width="2.5"/>
<path d="M81.869 21.967L88.9636 25.8354L66.0353 39.3978L58.0194 35.7365L81.869 21.967Z" fill="white" stroke="black" stroke-width="3"/>
<path d="M49.7303 4.49062L56.1421 7.4204L31.539 21.625L25.543 18.2669L49.7303 4.49062Z" fill="white" stroke="black" stroke-width="2.5"/>
<path d="M55.5399 37.3157L49.9206 39.9938L25.6557 26.3949L31.6977 23.3362L55.5399 37.3157Z" fill="white" fill-opacity="0.95" stroke="black" stroke-width="2.5"/>
<path d="M109.164 61.384L86.5065 48.4726L92.5025 45.0848L115.651 58.1453L109.164 61.384Z" fill="white" fill-opacity="0.95" stroke="black" stroke-width="2.5"/>
<path d="M108.87 62.967L115.965 66.8354L93.0363 80.3978L85.0204 76.7365L108.87 62.967Z" fill="white" stroke="black" stroke-width="3"/>
<path d="M82.5408 78.3157L76.9216 80.9938L52.6567 67.3949L58.6987 64.3362L82.5408 78.3157Z" fill="white" fill-opacity="0.95" stroke="black" stroke-width="2.5"/>
<path d="M58.8699 62.967L65.9646 66.8354L43.0363 80.3978L35.0204 76.7365L58.8699 62.967Z" fill="white" stroke="black" stroke-width="3"/>
<path d="M26.7313 45.4906L33.1431 48.4204L8.53999 62.625L2.54393 59.2669L26.7313 45.4906Z" fill="white" stroke="black" stroke-width="2.5"/>
<path d="M32.5408 78.3157L26.9216 80.9938L2.65671 67.3949L8.69867 64.3362L32.5408 78.3157Z" fill="white" fill-opacity="0.95" stroke="black" stroke-width="2.5"/>
</svg>
