<svg width="30" height="29" viewBox="0 0 30 29" fill="none" xmlns="http://www.w3.org/2000/svg">
<path d="M1.01367 14.0142H19.0453M25.41 14.0142H28.0137M25.41 14.0142C25.41 14.8695 25.0748 15.6898 24.4781 16.2946C23.8815 16.8994 23.0722 17.2392 22.2284 17.2392C21.3846 17.2392 20.5753 16.8994 19.9786 16.2946C19.382 15.6898 19.0468 14.8695 19.0468 14.0142C19.0468 13.1588 19.382 12.3385 19.9786 11.7337C20.5753 11.1289 21.3846 10.7891 22.2284 10.7891C23.0722 10.7891 23.8815 11.1289 24.4781 11.7337C25.0748 12.3385 25.41 13.1588 25.41 14.0142ZM1.01367 4.23994H9.40265M9.40265 4.23994C9.40265 3.38441 9.73866 2.56319 10.3355 1.95824C10.9323 1.35329 11.7417 1.01343 12.5857 1.01343C13.4295 1.01343 14.2388 1.35469 14.8355 1.9595C15.4321 2.56431 15.7673 3.38461 15.7673 4.23994M9.40265 4.23994C9.40265 5.09547 9.73866 5.91522 10.3355 6.52017C10.9323 7.12512 11.7417 7.46498 12.5857 7.46498C13.4295 7.46498 14.2388 7.1252 14.8355 6.52039C15.4321 5.91558 15.7673 5.09528 15.7673 4.23994M15.7673 4.23994H28.0137M1.01367 23.7884H5.54529M11.91 23.7884H28.0137M11.91 23.7884C11.91 24.6437 11.5748 25.464 10.9781 26.0688C10.3815 26.6736 9.57219 27.0134 8.72838 27.0134C8.31056 27.0134 7.89683 26.93 7.51082 26.7679C7.12481 26.6059 6.77407 26.3683 6.47863 26.0688C6.18319 25.7694 5.94883 25.4138 5.78894 25.0226C5.62905 24.6313 5.54675 24.2119 5.54675 23.7884C5.54675 23.3649 5.62905 22.9455 5.78894 22.5542C5.94883 22.1629 6.18319 21.8074 6.47863 21.5079C6.77407 21.2085 7.12481 20.9709 7.51082 20.8088C7.89683 20.6468 8.31056 20.5634 8.72838 20.5634C9.57219 20.5634 10.3815 20.9031 10.9781 21.5079C11.5748 22.1128 11.91 22.9331 11.91 23.7884Z" stroke="black" stroke-width="2.02703" stroke-miterlimit="10" stroke-linecap="round"/>
</svg>
