<svg width="28" height="33" viewBox="0 0 28 33" fill="none" xmlns="http://www.w3.org/2000/svg">
<path d="M1.25 18.7957C1.25 18.7957 4.82143 16.9643 7.79762 16.9643C9.89702 16.9643 12.2024 17.9771 13.7464 18.8121C14.931 19.4521 15.6125 19.8564 15.8833 21.3814C16.072 22.4407 15.4381 24.2064 14.5381 24.2936L13.9042 24.355M13.9042 24.355C12.4506 24.355 10.2006 23.8379 10.2006 23.8379M13.9042 24.355C15.9202 24.355 21.2274 23.2057 23.1083 22.7836C23.5571 22.6836 24.022 22.61 24.4488 22.8029C24.9857 23.0464 25.706 23.6343 26.05 25.0529C26.319 26.1614 25.6732 27.2279 24.7762 27.6443C22.1452 28.8657 16.6589 31.25 13.9042 31.25C6.60714 31.25 1.25 29.0521 1.25 29.0521M17.0857 5.53571C15.6232 4.82143 15.7351 1.25 18.1619 1.25C20.2857 1.25 20.8929 4.10714 20.8929 5.53571C20.8929 4.10714 21.5 1.25 23.6238 1.25C26.0506 1.25 26.1625 4.82143 24.6994 5.53571" stroke="black" stroke-width="2.5" stroke-linecap="round" stroke-linejoin="round"/>
<path d="M20.8923 5.56779V15.5678M26.178 13.3249C26.1125 14.4799 25.3721 15.3349 24.4096 15.4121C23.2386 15.5 22.0655 15.5412 20.8923 15.5357C19.7191 15.5412 18.546 15.5 17.375 15.4121C16.4125 15.3349 15.6727 14.4799 15.6066 13.3249C15.5661 12.6178 15.5352 11.6964 15.5352 10.5357C15.5352 9.37494 15.5661 8.45351 15.6066 7.74637C15.6721 6.59137 16.4125 5.73637 17.375 5.65922C18.546 5.57131 19.7191 5.53009 20.8923 5.53565C22.4286 5.53565 23.5875 5.59351 24.4096 5.65922C25.3721 5.73637 26.1119 6.59137 26.178 7.74637C26.2185 8.45351 26.2494 9.37494 26.2494 10.5357C26.2494 11.6964 26.2185 12.6178 26.178 13.3249Z" stroke="black" stroke-width="2.5" stroke-linecap="round" stroke-linejoin="round"/>
</svg>
