<svg width="30" height="26" viewBox="0 0 30 26" fill="none" xmlns="http://www.w3.org/2000/svg">
<path d="M26.8421 2.88889H1.57895V0H26.8421V2.88889ZM17.8421 11.5556C16.5789 12.9422 15.7895 14.7044 15.7895 16.6111C15.7895 18.2578 16.4684 20.02 17.3684 21.6667V23.1111H1.57895V14.4444H0V11.5556L1.57895 4.33333H26.8421L27.9474 9.38889C26.9053 8.92667 25.7684 8.66667 24.5684 8.66667L24.2526 7.22222H4.16842L3.22105 11.5556H17.8421ZM14.2105 14.4444H4.73684V20.2222H14.2105V14.4444ZM30 16.6111C30 20.3667 24.4737 26 24.4737 26C24.4737 26 18.9474 20.3667 18.9474 16.6111C18.9474 13.8667 21.4737 11.5556 24.4737 11.5556C27.4737 11.5556 30 13.8667 30 16.6111ZM26.3684 16.7556C26.3684 15.8889 25.4211 15.0222 24.4737 15.0222C23.5263 15.0222 22.5789 15.7444 22.5789 16.7556C22.5789 17.6222 23.3684 18.4889 24.4737 18.4889C25.5789 18.4889 26.5263 17.6222 26.3684 16.7556Z" fill="black"/>
</svg>
