<svg width="30" height="27" viewBox="0 0 30 27" fill="none" xmlns="http://www.w3.org/2000/svg">
<path d="M27.6923 0H0V8.52632H27.6923V0ZM24.6154 5.68421H3.07692V2.84211H24.6154V5.68421ZM17.6923 11.3684C18.1231 11.3684 18.4615 11.6811 18.4615 12.0789V14.2105H9.23077V12.0789C9.23077 11.6811 9.56923 11.3684 10 11.3684H17.6923ZM23.0769 14.3384V9.94737H26.1538V14.3384C25.6462 14.2674 25.1385 14.2105 24.6154 14.2105C24.0923 14.2105 23.5846 14.2674 23.0769 14.3384ZM15.3846 22.7368C15.3846 23.7316 15.5846 24.6837 15.9231 25.5789H1.53846V9.94737H4.61538V22.7368H15.3846ZM30 20.25L22.6923 27L18.4615 22.7368L20.2462 21.0884L22.6923 23.3479L28.2154 18.2463L30 20.25Z" fill="black"/>
</svg>
