<svg width="28" height="30" viewBox="0 0 28 30" fill="none" xmlns="http://www.w3.org/2000/svg">
<path fill-rule="evenodd" clip-rule="evenodd" d="M13.9997 9.62817C12.6318 9.62817 11.3198 10.1716 10.3525 11.1389C9.38522 12.1062 8.8418 13.4181 8.8418 14.7861C8.8418 16.1541 9.38522 17.466 10.3525 18.4333C11.3198 19.4006 12.6318 19.944 13.9997 19.944C15.3677 19.944 16.6796 19.4006 17.6469 18.4333C18.6142 17.466 19.1577 16.1541 19.1577 14.7861C19.1577 13.4181 18.6142 12.1062 17.6469 11.1389C16.6796 10.1716 15.3677 9.62817 13.9997 9.62817ZM10.905 14.7861C10.905 13.9653 11.231 13.1782 11.8114 12.5978C12.3918 12.0174 13.179 11.6913 13.9997 11.6913C14.8205 11.6913 15.6077 12.0174 16.1881 12.5978C16.7684 13.1782 17.0945 13.9653 17.0945 14.7861C17.0945 15.6069 16.7684 16.3941 16.1881 16.9744C15.6077 17.5548 14.8205 17.8809 13.9997 17.8809C13.179 17.8809 12.3918 17.5548 11.8114 16.9744C11.231 16.3941 10.905 15.6069 10.905 14.7861Z" fill="black"/>
<path fill-rule="evenodd" clip-rule="evenodd" d="M13.9656 0C13.3535 0 12.8432 -2.56198e-08 12.4251 0.027509C11.9976 0.0447246 11.576 0.133046 11.1776 0.288845C10.7185 0.47878 10.3014 0.757286 9.94997 1.10846C9.59856 1.45963 9.31977 1.87659 9.12953 2.33551C8.93009 2.81692 8.87645 3.32584 8.85444 3.87877C8.85198 4.08094 8.79834 4.27919 8.69852 4.45501C8.59871 4.63083 8.45597 4.7785 8.28363 4.88422C8.10595 4.98095 7.90666 5.03105 7.70437 5.02985C7.50207 5.02864 7.30339 4.97618 7.12687 4.87735C6.63721 4.61876 6.16956 4.41107 5.65239 4.3423C5.15991 4.27752 4.65948 4.31037 4.17969 4.43899C3.6999 4.56761 3.25015 4.78948 2.8561 5.09192C2.52241 5.35941 2.2356 5.68062 2.00745 6.04235C1.77362 6.39172 1.51779 6.83324 1.21244 7.36278L1.17805 7.4233C0.871328 7.95285 0.61687 8.39437 0.432559 8.77125C0.239996 9.16462 0.0886969 9.5525 0.0336789 9.98164C-0.0975387 10.9761 0.171608 11.9819 0.781924 12.7779C1.09965 13.1919 1.51366 13.4932 1.98132 13.7875C2.15549 13.8908 2.30062 14.0366 2.40309 14.2112C2.50557 14.3859 2.56206 14.5837 2.56726 14.7861C2.56206 14.9885 2.50557 15.1863 2.40309 15.361C2.30062 15.5356 2.15549 15.6814 1.98132 15.7847C1.51366 16.079 1.10103 16.3802 0.781924 16.7942C0.479485 17.1883 0.257622 17.638 0.129002 18.1178C0.000381601 18.5976 -0.0324765 19.098 0.0323035 19.5905C0.088697 20.0197 0.238621 20.4076 0.431184 20.8009C0.61687 21.1778 0.871328 21.6193 1.17805 22.1489L1.21244 22.2094C1.51779 22.7389 1.77362 23.1805 2.00745 23.5298C2.2509 23.8916 2.51224 24.2176 2.8561 24.4789C3.25004 24.7816 3.69975 25.0037 4.17955 25.1325C4.65934 25.2614 5.15982 25.2945 5.65239 25.2299C6.16956 25.1611 6.63721 24.9548 7.12687 24.6948C7.30322 24.5962 7.50165 24.5439 7.70368 24.5427C7.90571 24.5415 8.10475 24.5915 8.28225 24.688C8.45599 24.7924 8.59999 24.9397 8.70043 25.1157C8.80086 25.2918 8.85437 25.4907 8.85582 25.6934C8.87645 26.2463 8.93009 26.7553 9.13091 27.2367C9.32084 27.6957 9.59935 28.1129 9.95052 28.4643C10.3017 28.8157 10.7186 29.0945 11.1776 29.2847C11.5765 29.4498 11.9891 29.5144 12.4251 29.5433C12.8432 29.5722 13.3535 29.5722 13.9656 29.5722H14.0344C14.6465 29.5722 15.1568 29.5722 15.5749 29.5447C16.0123 29.5144 16.4235 29.4498 16.8224 29.2833C17.2815 29.0934 17.6986 28.8149 18.05 28.4637C18.4014 28.1125 18.6802 27.6956 18.8705 27.2367C19.0699 26.7553 19.1236 26.2463 19.1456 25.6934C19.1478 25.491 19.2013 25.2925 19.3011 25.1164C19.401 24.9403 19.5438 24.7924 19.7164 24.6866C19.8942 24.5901 20.0935 24.5402 20.2958 24.5416C20.4981 24.5431 20.6967 24.5958 20.8731 24.6948C21.3628 24.9534 21.8304 25.1611 22.3476 25.2285C23.342 25.3597 24.3479 25.0906 25.1439 24.4803C25.4878 24.2162 25.7491 23.8916 25.9925 23.5298C26.2264 23.1805 26.4822 22.7389 26.7876 22.2094L26.8219 22.1489C27.1287 21.6193 27.3831 21.1778 27.5674 20.8009C27.76 20.4076 27.9113 20.0183 27.9663 19.5905C28.0975 18.5961 27.8284 17.5903 27.2181 16.7942C26.9003 16.3802 26.4863 16.079 26.0187 15.7847C25.8445 15.6814 25.6994 15.5356 25.5969 15.361C25.4944 15.1863 25.4379 14.9885 25.4327 14.7861C25.4327 14.4037 25.6418 14.0241 26.0187 13.7875C26.4863 13.4932 26.899 13.1919 27.2181 12.7779C27.5205 12.3839 27.7424 11.9341 27.871 11.4543C27.9996 10.9746 28.0325 10.4741 27.9677 9.98164C27.9029 9.55882 27.7681 9.14976 27.5688 8.77125C27.3339 8.31429 27.0848 7.86476 26.8219 7.4233L26.7876 7.36278C26.5363 6.9145 26.2712 6.47414 25.9925 6.04235C25.7643 5.68111 25.4775 5.36037 25.1439 5.09329C24.75 4.79061 24.3002 4.5685 23.8205 4.43964C23.3407 4.31079 22.8402 4.27771 22.3476 4.3423C21.8304 4.41107 21.3628 4.61739 20.8731 4.87735C20.6968 4.97593 20.4983 5.02826 20.2963 5.02947C20.0943 5.03067 19.8953 4.9807 19.7177 4.88422C19.5449 4.77883 19.4016 4.63131 19.3013 4.45546C19.201 4.27962 19.1469 4.0812 19.1442 3.87877C19.1236 3.32584 19.0699 2.81692 18.8691 2.33551C18.6792 1.87646 18.4007 1.45931 18.0495 1.10791C17.6983 0.756499 17.2814 0.477713 16.8224 0.287469C16.4235 0.122415 16.0109 0.0577689 15.5749 0.0288845C15.1568 3.84296e-08 14.6465 0 14.0344 0H13.9656ZM11.9671 2.19384C12.073 2.14983 12.2339 2.10994 12.5654 2.08656C12.9051 2.06318 13.3453 2.06318 14 2.06318C14.6547 2.06318 15.0949 2.06318 15.4346 2.08656C15.7661 2.10994 15.927 2.14983 16.0329 2.19384C16.4552 2.36853 16.7894 2.70276 16.9641 3.12502C17.0191 3.25707 17.0645 3.46476 17.0824 3.95579C17.1236 5.04515 17.6862 6.09462 18.6848 6.67093C19.6834 7.24725 20.8731 7.21011 21.8373 6.70119C22.272 6.47149 22.4741 6.40685 22.6172 6.38897C23.0691 6.32925 23.5263 6.45145 23.8881 6.7287C23.9789 6.79885 24.0944 6.91851 24.2801 7.1936C24.4713 7.47695 24.6914 7.85795 25.0187 8.42463C25.3461 8.99132 25.5648 9.37369 25.7147 9.67904C25.8619 9.97752 25.9073 10.1371 25.921 10.2512C25.9807 10.7032 25.8585 11.1603 25.5813 11.5221C25.4933 11.6363 25.3365 11.7794 24.9211 12.0407C23.9968 12.6211 23.3696 13.6335 23.3696 14.7861C23.3696 15.9387 23.9968 16.951 24.9211 17.5315C25.3365 17.7928 25.4933 17.9359 25.5813 18.05C25.8591 18.4118 25.9802 18.8684 25.921 19.3209C25.9073 19.4351 25.8605 19.596 25.7147 19.8931C25.5648 20.1999 25.3461 20.5809 25.0187 21.1475C24.6914 21.7142 24.4699 22.0952 24.2801 22.3786C24.0944 22.6537 23.9789 22.7733 23.8881 22.8435C23.5263 23.1207 23.0691 23.2429 22.6172 23.1832C22.4741 23.1653 22.2733 23.1007 21.8373 22.871C20.8745 22.3621 19.6834 22.3236 18.6848 22.8999C17.6862 23.4762 17.1236 24.527 17.0824 25.6164C17.0645 26.1074 17.0191 26.3151 16.9641 26.4472C16.8777 26.6559 16.751 26.8457 16.5912 27.0054C16.4314 27.1652 16.2417 27.2919 16.0329 27.3783C15.927 27.4223 15.7661 27.4622 15.4346 27.4856C15.0949 27.509 14.6547 27.509 14 27.509C13.3453 27.509 12.9051 27.509 12.5654 27.4856C12.2339 27.4622 12.073 27.4223 11.9671 27.3783C11.7583 27.2919 11.5686 27.1652 11.4088 27.0054C11.249 26.8457 11.1223 26.6559 11.0359 26.4472C10.9809 26.3151 10.9355 26.1074 10.9176 25.6164C10.8764 24.527 10.3138 23.4776 9.31522 22.9012C8.31664 22.3249 7.12688 22.3621 6.16268 22.871C5.72804 23.1007 5.52585 23.1653 5.3828 23.1832C4.93088 23.2429 4.47374 23.1207 4.11189 22.8435C4.02111 22.7733 3.90557 22.6537 3.71989 22.3786C3.46114 21.9759 3.21482 21.5654 2.98127 21.1475C2.65391 20.5809 2.43521 20.1985 2.28529 19.8931C2.13812 19.5947 2.09273 19.4351 2.07897 19.3209C2.01926 18.869 2.14146 18.4119 2.41871 18.05C2.50674 17.9359 2.66354 17.7928 3.07893 17.5315C4.00323 16.951 4.63043 15.9387 4.63043 14.7861C4.63043 13.6335 4.00323 12.6211 3.07893 12.0407C2.66354 11.7794 2.50674 11.6363 2.41871 11.5221C2.14146 11.1603 2.01926 10.7032 2.07897 10.2512C2.09273 10.1371 2.13949 9.97614 2.28529 9.67904C2.43521 9.37232 2.65391 8.99132 2.98127 8.42463C3.30863 7.85795 3.53007 7.47695 3.71989 7.1936C3.90557 6.91851 4.02111 6.79885 4.11189 6.7287C4.47374 6.45145 4.93088 6.32925 5.3828 6.38897C5.52585 6.40685 5.72667 6.47149 6.16268 6.70119C7.1255 7.21011 8.31664 7.24862 9.31522 6.67093C10.3138 6.09462 10.8764 5.04515 10.9176 3.95579C10.9355 3.46476 10.9809 3.25707 11.0359 3.12502C11.2106 2.70276 11.5448 2.36853 11.9671 2.19384Z" fill="black"/>
</svg>
