<svg width="30" height="35" viewBox="0 0 30 35" fill="none" xmlns="http://www.w3.org/2000/svg">
<path d="M30 21.031C30.0028 19.4693 29.6096 17.9323 28.8571 16.5639C28.9538 16.4208 29.0362 16.2684 29.1042 16.1067C29.2768 15.694 29.3384 15.2433 29.2829 14.7994C29.2274 14.3556 29.0568 13.9339 28.7879 13.5764C28.5191 13.2189 28.1614 12.9379 27.7503 12.7614C27.3393 12.5848 26.8893 12.5189 26.4449 12.5701C26.6398 12.1772 26.7945 11.7672 26.909 11.3402L27.7606 8.17613C28.2243 6.70233 28.1292 5.10939 27.4935 3.70121C26.8578 2.29302 25.726 1.16813 24.3139 0.541131C22.9018 -0.0858736 21.3083 -0.171113 19.8374 0.301673C18.3665 0.774459 17.1211 1.77218 16.3387 3.10451C15.6223 2.11695 14.5772 1.41721 13.3912 1.13102C12.2052 0.84483 10.956 0.990938 9.86803 1.5431C8.78007 2.09526 7.92466 3.01728 7.45547 4.14351C6.98628 5.26975 6.93407 6.52638 7.30822 7.68765H4.65C0.0575817 7.68765 -1.74551 13.6434 2.07532 16.1902L4.32628 17.6917L2.75641 23.8505C2.56016 24.5937 2.53869 25.3722 2.6937 26.1251C2.8487 26.878 3.17597 27.5847 3.64983 28.1899C4.26903 28.9881 5.11396 29.5816 6.07484 29.8933V33.7941C6.07484 34.1019 6.19708 34.397 6.41468 34.6146C6.63228 34.8322 6.9274 34.9544 7.23513 34.9544H28.8397C29.1474 34.9544 29.4425 34.8322 29.6601 34.6146C29.8777 34.397 30 34.1019 30 33.7941V21.031ZM13.7559 30.1392H16.9119C17.584 30.1393 18.2293 29.8756 18.7089 29.4047C19.1885 28.9338 19.464 28.2934 19.4762 27.6214C19.4762 27.2776 19.4083 26.9372 19.2763 26.6197C19.1444 26.3022 18.9511 26.0139 18.7074 25.7713C18.4638 25.5287 18.1746 25.3367 17.8565 25.2061C17.5385 25.0756 17.1977 25.0092 16.8539 25.0108H13.7559V21.8095C13.756 21.6185 13.7089 21.4305 13.6188 21.2621C13.5287 21.0937 13.3985 20.9502 13.2396 20.8442L3.36208 14.2595C1.45225 12.9855 2.35379 10.0082 4.65 10.0082H7.9429L8.22137 11.0409C8.48685 12.0288 9.02655 12.9213 9.77806 13.6154C10.5296 14.3094 11.4622 14.7765 12.468 14.9627C13.1221 15.0771 13.7927 15.0554 14.4379 14.8989C15.0832 14.7424 15.6892 14.4544 16.2181 14.053C16.2823 14.0638 16.348 14.0692 16.4153 14.0692H20.7177C21.1625 14.07 21.5956 14.1102 22.0172 14.1899L19.1049 15.3107C18.5483 15.527 18.0846 15.9306 17.7938 16.4522C17.503 16.9737 17.4033 17.5803 17.512 18.1675C17.6206 18.7546 17.9307 19.2854 18.3888 19.6684C18.847 20.0513 19.4244 20.2624 20.0215 20.2652C20.3394 20.2652 20.6539 20.206 20.9497 20.0911L26.8893 17.8054C27.394 18.7684 27.6794 19.8672 27.6794 21.031V32.6339H13.7559V30.1392ZM17.9388 11.7487C17.9829 11.6342 18.0235 11.5182 18.0606 11.4006C18.3646 10.4247 18.3851 9.38253 18.1198 8.39543L17.6 6.5146L17.8785 5.4773L17.8854 5.44946C17.9984 4.92387 18.2171 4.42674 18.528 3.98822C18.839 3.54969 19.2359 3.17894 19.6945 2.89844C20.1531 2.61795 20.6639 2.43356 21.196 2.35649C21.728 2.27941 22.2702 2.31124 22.7895 2.45005C23.3089 2.58886 23.7947 2.83176 24.2173 3.164C24.6399 3.49624 24.9907 3.91089 25.2482 4.38279C25.5057 4.85469 25.6647 5.374 25.7154 5.9092C25.7661 6.4444 25.7076 6.98432 25.5433 7.49621L25.5352 7.52173L24.6685 10.7415C24.5152 11.3099 24.2466 11.8407 23.8795 12.301C22.8656 11.9347 21.7957 11.7478 20.7177 11.7487H17.9388Z" fill="black"/>
</svg>
