<svg width="63" height="16" viewBox="0 0 63 16" fill="none" xmlns="http://www.w3.org/2000/svg">
<rect x="0.25" y="0.25" width="62.5" height="15.349" fill="white" stroke="black" stroke-width="0.5"/>
<path d="M8.02616 5.97684V3.57364C8.02616 3.09561 8.22985 2.63717 8.59241 2.29915C8.95497 1.96114 9.44672 1.77124 9.95946 1.77124C10.4722 1.77124 10.9639 1.96114 11.3265 2.29915C11.6891 2.63717 11.8928 3.09561 11.8928 3.57364V5.97684M13.8261 4.77524L14.417 11.9386C14.4238 12.0211 14.4123 12.1041 14.3831 12.1823C14.3539 12.2605 14.3077 12.3322 14.2474 12.393C14.1871 12.4537 14.1139 12.5022 14.0325 12.5354C13.9512 12.5685 13.8633 12.5856 13.7745 12.5856H6.14441C6.05561 12.5856 5.96776 12.5685 5.88638 12.5354C5.805 12.5022 5.73185 12.4537 5.67152 12.393C5.6112 12.3322 5.56499 12.2605 5.5358 12.1823C5.50661 12.1041 5.49508 12.0211 5.50191 11.9386L6.09286 4.77524H13.8261Z" stroke="black" stroke-width="0.724988" stroke-linecap="round" stroke-linejoin="round"/>
<ellipse cx="14.2703" cy="12.5807" rx="2.22973" ry="2.07876" fill="black" stroke="black" stroke-width="0.343035"/>
<rect x="12.7998" y="12.2601" width="1.15054" height="0.670398" fill="white"/>
<rect x="14.6694" y="11.1876" width="1.07264" height="0.719087" transform="rotate(90 14.6694 11.1876)" fill="white"/>
<rect x="14.6694" y="12.9308" width="1.07264" height="0.719087" transform="rotate(90 14.6694 12.9308)" fill="white"/>
<rect x="14.6694" y="12.2601" width="1.15054" height="0.670398" fill="white"/>
<rect x="13.9502" y="12.2601" width="0.719087" height="0.670398" fill="white"/>
<path d="M9.14258 7.88012C9.14258 7.82161 9.19623 7.7778 9.25356 7.7895L10.7829 8.10174C10.8259 8.11053 10.8569 8.14841 10.8569 8.19235V9.96377C10.8569 10.0089 10.8244 10.0474 10.7799 10.0549L9.25057 10.3151C9.19411 10.3247 9.14258 10.2812 9.14258 10.224V7.88012Z" fill="black"/>
<path d="M11.2856 8.23009C11.2856 8.17158 11.3393 8.12778 11.3966 8.13948L12.926 8.45172C12.969 8.46051 12.9999 8.49838 12.9999 8.54233V9.61479C12.9999 9.65941 12.9681 9.69768 12.9242 9.70574L11.3948 9.98676C11.338 9.9972 11.2856 9.95357 11.2856 9.8958V8.23009Z" fill="black"/>
<path d="M7 7.42107C7 7.36011 7.05795 7.31582 7.11677 7.33184L8.6461 7.74815C8.68636 7.75911 8.71429 7.79567 8.71429 7.83739V10.3187C8.71429 10.3615 8.6849 10.3987 8.64324 10.4086L7.11391 10.7729C7.05579 10.7868 7 10.7427 7 10.683V7.42107Z" fill="black"/>
<path d="M20.2582 10.7291L22.1202 5.48134H22.8985V6.45598H22.6184L21.2401 10.7291H20.2582ZM21.1965 9.37263L21.4401 8.64892H23.8476L24.0913 9.37263H21.1965ZM24.0586 10.7291L22.6803 6.45598V5.48134H23.1749L25.0405 10.7291H24.0586ZM27.0275 10.7946C26.6977 10.7946 26.4104 10.7122 26.1656 10.5473C25.9207 10.38 25.7316 10.1424 25.5982 9.83449C25.4649 9.52658 25.3982 9.16412 25.3982 8.74711V8.73984C25.3982 8.31798 25.4637 7.95431 25.5946 7.64883C25.7279 7.34092 25.9158 7.10453 26.1583 6.93967C26.4032 6.77238 26.6929 6.68873 27.0275 6.68873C27.2093 6.68873 27.379 6.71783 27.5366 6.77601C27.6942 6.83178 27.8324 6.91178 27.9512 7.01604C28.0724 7.12029 28.167 7.24394 28.2348 7.38698H28.3003V5.21586H29.2022V10.7291H28.3003V10.1072H28.2348C28.1621 10.2503 28.0663 10.3739 27.9475 10.4782C27.8312 10.58 27.6954 10.6588 27.5402 10.7146C27.3851 10.7679 27.2141 10.7946 27.0275 10.7946ZM27.3111 10.0309C27.5172 10.0309 27.6942 9.97996 27.8421 9.87813C27.9924 9.77388 28.1076 9.62599 28.1876 9.43445C28.27 9.2405 28.3112 9.01138 28.3112 8.74711V8.73984C28.3112 8.47315 28.27 8.24403 28.1876 8.0525C28.1076 7.86097 27.9924 7.71307 27.8421 7.60882C27.6942 7.50457 27.5172 7.45244 27.3111 7.45244C27.1075 7.45244 26.9305 7.50457 26.7802 7.60882C26.6323 7.71065 26.5183 7.85854 26.4383 8.0525C26.3583 8.24403 26.3183 8.47315 26.3183 8.73984V8.74711C26.3183 9.01381 26.3583 9.24292 26.4383 9.43445C26.5183 9.62599 26.6323 9.77388 26.7802 9.87813C26.9281 9.97996 27.105 10.0309 27.3111 10.0309ZM31.742 10.7946C31.4122 10.7946 31.1249 10.7122 30.8801 10.5473C30.6352 10.38 30.4461 10.1424 30.3127 9.83449C30.1794 9.52658 30.1127 9.16412 30.1127 8.74711V8.73984C30.1127 8.31798 30.1782 7.95431 30.3091 7.64883C30.4424 7.34092 30.6303 7.10453 30.8728 6.93967C31.1177 6.77238 31.4074 6.68873 31.742 6.68873C31.9238 6.68873 32.0935 6.71783 32.2511 6.77601C32.4087 6.83178 32.5469 6.91178 32.6657 7.01604C32.7869 7.12029 32.8815 7.24394 32.9494 7.38698H33.0148V5.21586H33.9167V10.7291H33.0148V10.1072H32.9494C32.8766 10.2503 32.7809 10.3739 32.6621 10.4782C32.5457 10.58 32.4099 10.6588 32.2547 10.7146C32.0996 10.7679 31.9286 10.7946 31.742 10.7946ZM32.0256 10.0309C32.2317 10.0309 32.4087 9.97996 32.5566 9.87813C32.7069 9.77388 32.8221 9.62599 32.9021 9.43445C32.9845 9.2405 33.0257 9.01138 33.0257 8.74711V8.73984C33.0257 8.47315 32.9845 8.24403 32.9021 8.0525C32.8221 7.86097 32.7069 7.71307 32.5566 7.60882C32.4087 7.50457 32.2317 7.45244 32.0256 7.45244C31.822 7.45244 31.645 7.50457 31.4947 7.60882C31.3468 7.71065 31.2328 7.85854 31.1528 8.0525C31.0728 8.24403 31.0328 8.47315 31.0328 8.73984V8.74711C31.0328 9.01381 31.0728 9.24292 31.1528 9.43445C31.2328 9.62599 31.3468 9.77388 31.4947 9.87813C31.6426 9.97996 31.8195 10.0309 32.0256 10.0309ZM38.538 10.7473C38.0822 10.7473 37.7537 10.6637 37.5524 10.4964C37.3512 10.3291 37.2506 10.0551 37.2506 9.67448V7.45608H36.6323V6.75419H37.2506V5.77955H38.1707V6.75419H39.0071V7.45608H38.1707V9.45991C38.1707 9.65629 38.2119 9.80055 38.2943 9.89268C38.3792 9.98239 38.515 10.0272 38.7016 10.0272C38.7671 10.0272 38.8204 10.026 38.8617 10.0236C38.9053 10.0188 38.9538 10.0139 39.0071 10.0091V10.7073C38.9441 10.7194 38.8714 10.7291 38.7889 10.7364C38.7089 10.7437 38.6253 10.7473 38.538 10.7473ZM41.5578 10.8091C41.1626 10.8091 40.822 10.7267 40.5359 10.5618C40.2498 10.3945 40.0291 10.1569 39.874 9.84904C39.7212 9.54113 39.6449 9.17261 39.6449 8.74348V8.7362C39.6449 8.31192 39.7225 7.94582 39.8776 7.63792C40.0328 7.32758 40.2522 7.08998 40.5359 6.92512C40.822 6.76025 41.1626 6.67782 41.5578 6.67782C41.953 6.67782 42.2924 6.76025 42.5761 6.92512C42.8622 7.08998 43.0828 7.32637 43.2379 7.63428C43.3931 7.94219 43.4707 8.3095 43.4707 8.7362V8.74348C43.4707 9.17261 43.3931 9.54113 43.2379 9.84904C43.0852 10.1569 42.8658 10.3945 42.5797 10.5618C42.296 10.7267 41.9554 10.8091 41.5578 10.8091ZM41.5578 10.0745C41.7663 10.0745 41.9433 10.0224 42.0887 9.91814C42.2366 9.81146 42.3494 9.65993 42.427 9.46355C42.5045 9.26474 42.5433 9.02593 42.5433 8.74711V8.73984C42.5433 8.4586 42.5045 8.21979 42.427 8.02341C42.3494 7.8246 42.2366 7.67307 42.0887 7.56882C41.9433 7.46214 41.7663 7.4088 41.5578 7.4088C41.3493 7.4088 41.1711 7.46214 41.0232 7.56882C40.8753 7.67307 40.7626 7.8246 40.685 8.02341C40.6074 8.21979 40.5686 8.4586 40.5686 8.73984V8.74711C40.5686 9.02593 40.6074 9.26474 40.685 9.46355C40.7626 9.66236 40.8741 9.81389 41.0195 9.91814C41.1674 10.0224 41.3469 10.0745 41.5578 10.0745ZM46.8591 10.7291V10.0018H48.4193C48.766 10.0018 49.029 9.93147 49.2084 9.79085C49.3878 9.64781 49.4776 9.44294 49.4776 9.17625V9.16897C49.4776 8.99199 49.4363 8.84288 49.3539 8.72166C49.2715 8.60043 49.1478 8.50952 48.983 8.4489C48.8205 8.38829 48.6193 8.35799 48.3793 8.35799H46.8591V7.69247H48.2338C48.566 7.69247 48.8181 7.62943 48.9902 7.50336C49.1648 7.37728 49.2521 7.19545 49.2521 6.95785V6.95058C49.2521 6.71783 49.1733 6.53599 49.0157 6.40507C48.8581 6.27415 48.6375 6.20868 48.3538 6.20868H46.8591V5.48134H48.5793C48.9139 5.48134 49.2 5.53468 49.4376 5.64136C49.6752 5.74561 49.8582 5.89593 49.9867 6.09231C50.1152 6.28627 50.1794 6.51781 50.1794 6.78692V6.7942C50.1794 6.97846 50.137 7.15059 50.0522 7.31061C49.9697 7.47063 49.8582 7.60397 49.7176 7.71065C49.5794 7.81733 49.4218 7.88521 49.2448 7.91431V7.97977C49.48 8.00159 49.6861 8.06947 49.863 8.18342C50.0425 8.29495 50.1819 8.44163 50.2813 8.62347C50.3831 8.8053 50.434 9.00896 50.434 9.23443V9.24171C50.434 9.54719 50.3613 9.81146 50.2158 10.0345C50.0728 10.2576 49.8667 10.4297 49.5976 10.5509C49.3284 10.6697 49.0072 10.7291 48.6338 10.7291H46.8591ZM46.39 10.7291V5.48134H47.3283V10.7291H46.39ZM52.4137 10.7946C52.164 10.7946 51.9397 10.7461 51.7409 10.6491C51.5445 10.5521 51.3894 10.4152 51.2754 10.2382C51.1639 10.0588 51.1081 9.84783 51.1081 9.60538V9.59811C51.1081 9.36293 51.1663 9.16049 51.2827 8.99077C51.3991 8.81864 51.57 8.68408 51.7955 8.5871C52.0209 8.49012 52.2949 8.43314 52.6174 8.41617L54.0866 8.32525V8.92168L52.7446 9.00896C52.4901 9.0235 52.3022 9.07684 52.181 9.16897C52.0597 9.2611 51.9991 9.3896 51.9991 9.55447V9.56174C51.9991 9.73145 52.0634 9.86359 52.1919 9.95814C52.3228 10.0527 52.4889 10.1 52.6901 10.1C52.8719 10.1 53.0344 10.0636 53.1774 9.99087C53.3205 9.91814 53.4332 9.81995 53.5156 9.6963C53.5981 9.57022 53.6393 9.42839 53.6393 9.2708V8.0125C53.6393 7.81369 53.5762 7.66216 53.4502 7.55791C53.3241 7.45123 53.1374 7.39789 52.8901 7.39789C52.684 7.39789 52.5155 7.43426 52.3846 7.50699C52.2537 7.5773 52.1652 7.67792 52.1191 7.80884L52.1155 7.82339H51.2609L51.2645 7.79066C51.2936 7.56761 51.3809 7.37243 51.5263 7.20515C51.6718 7.03786 51.8646 6.90815 52.1046 6.81602C52.3446 6.72389 52.621 6.67782 52.9338 6.67782C53.278 6.67782 53.569 6.73116 53.8066 6.83784C54.0442 6.94209 54.2248 7.09483 54.3484 7.29606C54.4721 7.49487 54.5339 7.73368 54.5339 8.0125V10.7291H53.6393V10.1836H53.5775C53.5047 10.3097 53.4102 10.4188 53.2938 10.5109C53.1798 10.6031 53.0489 10.6734 52.901 10.7219C52.7531 10.7703 52.5907 10.7946 52.4137 10.7946ZM57.2955 12.1256C56.9464 12.1256 56.6445 12.0796 56.39 11.9874C56.1378 11.8953 55.939 11.7644 55.7935 11.5947C55.6481 11.4274 55.5596 11.2322 55.5281 11.0092L55.5317 10.9982H56.4336L56.4409 11.0092C56.47 11.1352 56.5585 11.2383 56.7064 11.3183C56.8567 11.4007 57.0579 11.4419 57.31 11.4419C57.6204 11.4419 57.8604 11.3728 58.0301 11.2346C58.2023 11.0964 58.2883 10.9001 58.2883 10.6455V9.88177H58.2265C58.1513 10.0248 58.0532 10.146 57.9319 10.2454C57.8131 10.3448 57.6761 10.42 57.521 10.4709C57.3682 10.5194 57.1997 10.5437 57.0155 10.5437C56.6809 10.5437 56.3912 10.4636 56.1463 10.3036C55.9014 10.1412 55.7123 9.91693 55.579 9.63084C55.448 9.34475 55.3826 9.01381 55.3826 8.63801V8.63074C55.3826 8.24767 55.4493 7.91067 55.5826 7.61973C55.716 7.32879 55.9051 7.10089 56.1499 6.93603C56.3972 6.77116 56.6918 6.68873 57.0337 6.68873C57.2179 6.68873 57.3864 6.71783 57.5392 6.77601C57.6943 6.8342 57.8301 6.91663 57.9465 7.02331C58.0653 7.12999 58.1623 7.25848 58.2374 7.4088H58.2847V6.75419H59.1902V10.6309C59.1902 10.9364 59.1126 11.2007 58.9575 11.4237C58.8047 11.6492 58.5865 11.8226 58.3029 11.9438C58.0192 12.065 57.6834 12.1256 57.2955 12.1256ZM57.2955 9.82358C57.504 9.82358 57.6834 9.77388 57.8337 9.67448C57.9841 9.57265 58.0992 9.43324 58.1792 9.25625C58.2617 9.07927 58.3029 8.87319 58.3029 8.63801V8.63074C58.3029 8.39556 58.2617 8.18948 58.1792 8.0125C58.0992 7.83309 57.9841 7.69368 57.8337 7.59427C57.6834 7.49245 57.504 7.44153 57.2955 7.44153C57.0846 7.44153 56.9052 7.49245 56.7573 7.59427C56.6118 7.69368 56.5003 7.83309 56.4227 8.0125C56.3475 8.18948 56.31 8.39556 56.31 8.63074V8.63801C56.31 8.87076 56.3475 9.07684 56.4227 9.25625C56.5003 9.43324 56.6118 9.57265 56.7573 9.67448C56.9052 9.77388 57.0846 9.82358 57.2955 9.82358Z" fill="black" fill-opacity="0.9"/>
</svg>
