<svg width="15" height="18" viewBox="0 0 15 18" fill="none" xmlns="http://www.w3.org/2000/svg">
<path d="M4.54347 7.05928V3.45928C4.54347 2.74319 4.84859 2.05644 5.39172 1.55009C5.93484 1.04374 6.67147 0.759277 7.43956 0.759277C8.20765 0.759277 8.94428 1.04374 9.48741 1.55009C10.0305 2.05644 10.3357 2.74319 10.3357 3.45928V7.05928M13.2317 5.25928L14.117 15.99C14.1272 16.1136 14.1099 16.2379 14.0662 16.3551C14.0225 16.4722 13.9533 16.5797 13.8629 16.6707C13.7725 16.7617 13.6629 16.8343 13.541 16.884C13.4191 16.9336 13.2875 16.9593 13.1545 16.9593H1.72461C1.59158 16.9593 1.45998 16.9336 1.33808 16.884C1.21617 16.8343 1.1066 16.7617 1.01622 16.6707C0.925848 16.5797 0.856628 16.4722 0.812905 16.3551C0.769181 16.2379 0.7519 16.1136 0.762144 15.99L1.64738 5.25928H13.2317Z" stroke="black" stroke-width="1.51875" stroke-linecap="round" stroke-linejoin="round"/>
<path d="M8.58252 10.3457V12.8203L6.47412 13.1797V9.91504L8.58252 10.3457Z" fill="black" stroke="black" stroke-width="0.37194"/>
<path d="M9.54272 10.259L11.7546 10.7112C11.8011 10.7208 11.8346 10.7614 11.8347 10.8088V12.3606C11.8346 12.4088 11.8001 12.4504 11.7527 12.4592L9.54077 12.8655C9.47916 12.8768 9.42168 12.8295 9.42163 12.7668V10.3577C9.42163 10.2942 9.48053 10.2463 9.54272 10.259Z" fill="black" stroke="black" stroke-width="0.0668835"/>
<path d="M3.34961 9.09033L5.56152 9.69287C5.60519 9.70476 5.63574 9.74429 5.63574 9.78955V13.3784C5.63574 13.4249 5.60376 13.4653 5.55859 13.4761L3.34668 14.0034C3.28377 14.0184 3.22292 13.9704 3.22266 13.9058V9.18701C3.22281 9.12101 3.28588 9.07298 3.34961 9.09033Z" fill="black" stroke="black" stroke-width="0.0668835"/>
</svg>
