<svg width="48" height="61" viewBox="0 0 48 61" fill="none" xmlns="http://www.w3.org/2000/svg">
<path d="M11.8177 20.5821V9.66826C11.8177 7.49737 12.651 5.41539 14.1342 3.88034C15.6174 2.34529 17.6291 1.48291 19.7267 1.48291C21.8243 1.48291 23.8359 2.34529 25.3191 3.88034C26.8024 5.41539 27.6356 7.49737 27.6356 9.66826V20.5821M35.5446 15.1252L37.9621 47.6564C37.9901 48.0313 37.9429 48.4082 37.8235 48.7633C37.7041 49.1184 37.515 49.4441 37.2682 49.72C37.0214 49.996 36.7222 50.2161 36.3893 50.3667C36.0564 50.5172 35.697 50.595 35.3337 50.595H4.11964C3.75633 50.595 3.39695 50.5172 3.06404 50.3667C2.73114 50.2161 2.43189 49.996 2.18509 49.72C1.93829 49.4441 1.74925 49.1184 1.62985 48.7633C1.51045 48.4082 1.46325 48.0313 1.49123 47.6564L3.90873 15.1252H35.5446Z" stroke="#040404" stroke-opacity="0.6" stroke-width="2.96586" stroke-linecap="round" stroke-linejoin="round"/>
<ellipse cx="37.3609" cy="50.5725" rx="9.12163" ry="9.44039" fill="#040404" fill-opacity="0.6" stroke="#040404" stroke-opacity="0.6" stroke-width="1.40333"/>
<rect x="31.3447" y="49.1168" width="4.70676" height="3.04452" fill="white"/>
<rect x="38.9922" y="44.2462" width="4.87123" height="2.94172" transform="rotate(90 38.9922 44.2462)" fill="white"/>
<rect x="38.9922" y="52.1625" width="4.87123" height="2.94172" transform="rotate(90 38.9922 52.1625)" fill="white"/>
<rect x="38.9922" y="49.1168" width="4.70676" height="3.04452" fill="white"/>
<rect x="36.0518" y="49.1168" width="2.94172" height="3.04452" fill="white"/>
<path d="M16.3857 29.1849C16.3857 28.9422 16.611 28.7622 16.8477 28.8159L23.1041 30.2339C23.2764 30.2729 23.3988 30.4261 23.3988 30.6028V38.7292C23.3988 38.9111 23.2694 39.0672 23.0906 39.101L16.8343 40.2826C16.6013 40.3266 16.3857 40.148 16.3857 39.9109V29.1849Z" fill="#040404" fill-opacity="0.6"/>
<path d="M25.1514 30.7742C25.1514 30.5315 25.3766 30.3516 25.6133 30.4052L31.8697 31.8232C32.042 31.8623 32.1644 32.0155 32.1644 32.1922V37.1442C32.1644 37.324 32.0378 37.479 31.8617 37.5149L25.6053 38.7911C25.3708 38.8389 25.1514 38.6597 25.1514 38.4204V30.7742Z" fill="#040404" fill-opacity="0.6"/>
<path d="M7.62012 27.1009C7.62012 26.8471 7.86499 26.6653 8.10789 26.7387L14.3642 28.6294C14.5239 28.6776 14.6331 28.8247 14.6331 28.9915V40.3404C14.6331 40.5121 14.5175 40.6623 14.3515 40.7061L8.09516 42.3605C7.85517 42.4239 7.62012 42.2429 7.62012 41.9947V27.1009Z" fill="#040404" fill-opacity="0.6"/>
</svg>
