<svg width="30" height="35" viewBox="0 0 30 35" fill="none" xmlns="http://www.w3.org/2000/svg">
<path d="M8.97495 13.9444V6.83333C8.97495 5.41885 9.57766 4.06229 10.6505 3.0621C11.7233 2.0619 13.1784 1.5 14.6956 1.5C16.2128 1.5 17.6679 2.0619 18.7407 3.0621C19.8136 4.06229 20.4163 5.41885 20.4163 6.83333V13.9444M26.137 10.3889L27.8856 31.5853C27.9058 31.8296 27.8717 32.0751 27.7853 32.3065C27.6989 32.5379 27.5622 32.7501 27.3837 32.9299C27.2052 33.1097 26.9887 33.2531 26.7479 33.3512C26.5071 33.4493 26.2472 33.5 25.9844 33.5H3.40683C3.14405 33.5 2.8841 33.4493 2.6433 33.3512C2.40251 33.2531 2.18606 33.1097 2.00754 32.9299C1.82903 32.7501 1.6923 32.5379 1.60593 32.3065C1.51956 32.0751 1.48543 31.8296 1.50566 31.5853L3.25428 10.3889H26.137Z" stroke="#7D1427" stroke-width="3" stroke-linecap="round" stroke-linejoin="round"/>
<path d="M16.9521 20.4346V25.3242L12.7891 26.0342V19.585L16.9521 20.4346Z" fill="#7D1427" stroke="#7D1427" stroke-width="0.734696"/>
<path d="M18.8486 20.2655L23.2188 21.1571C23.3108 21.1761 23.377 21.2574 23.377 21.3514V24.4159C23.3768 24.5112 23.3086 24.5928 23.2148 24.6102L18.8447 25.413C18.7231 25.4352 18.6115 25.3423 18.6113 25.2186V20.4589C18.6116 20.3337 18.7259 20.2405 18.8486 20.2655Z" fill="#7D1427" stroke="#7D1427" stroke-width="0.132116"/>
<path d="M6.61646 17.9563L10.9856 19.1458C11.0718 19.1692 11.132 19.2478 11.1321 19.3372V26.427C11.1319 26.5186 11.0689 26.5981 10.9797 26.6194L6.6106 27.6604C6.48606 27.6901 6.36646 27.5951 6.36646 27.467V18.1477C6.3665 18.0171 6.49043 17.922 6.61646 17.9563Z" fill="#7D1427" stroke="#7D1427" stroke-width="0.132116"/>
</svg>
