<svg width="30" height="35" viewBox="0 0 30 35" fill="none" xmlns="http://www.w3.org/2000/svg">
<path d="M8.97495 13.9444V6.83333C8.97495 5.41885 9.57766 4.06229 10.6505 3.0621C11.7233 2.0619 13.1784 1.5 14.6956 1.5C16.2128 1.5 17.6679 2.0619 18.7407 3.0621C19.8136 4.06229 20.4163 5.41885 20.4163 6.83333V13.9444M26.137 10.3889L27.8856 31.5853C27.9058 31.8296 27.8717 32.0751 27.7853 32.3065C27.6989 32.5379 27.5622 32.7501 27.3837 32.9299C27.2052 33.1097 26.9887 33.2531 26.7479 33.3512C26.5071 33.4493 26.2472 33.5 25.9844 33.5H3.40683C3.14405 33.5 2.8841 33.4493 2.6433 33.3512C2.40251 33.2531 2.18606 33.1097 2.00754 32.9299C1.82903 32.7501 1.6923 32.5379 1.60593 32.3065C1.51956 32.0751 1.48543 31.8296 1.50566 31.5853L3.25428 10.3889H26.137Z" stroke="#040404" stroke-opacity="0.6" stroke-width="3" stroke-linecap="round" stroke-linejoin="round"/>
<path d="M12.4219 19.4594C12.4219 19.2922 12.5752 19.167 12.739 19.2005L17.1085 20.0926C17.2315 20.1177 17.3199 20.2259 17.3199 20.3515V25.4127C17.3199 25.5415 17.2269 25.6515 17.0999 25.6732L12.7304 26.4166C12.5691 26.444 12.4219 26.3197 12.4219 26.1561V19.4594Z" fill="#040404" fill-opacity="0.6"/>
<path d="M18.5449 20.4592C18.5449 20.2921 18.6982 20.1669 18.862 20.2004L23.2315 21.0925C23.3545 21.1176 23.4429 21.2258 23.4429 21.3514V24.4155C23.4429 24.543 23.3518 24.6524 23.2264 24.6754L18.8569 25.4783C18.6946 25.5081 18.5449 25.3835 18.5449 25.2184V20.4592Z" fill="#040404" fill-opacity="0.6"/>
<path d="M6.30005 18.1478C6.30005 17.9736 6.46562 17.8471 6.63368 17.8928L11.0032 19.0823C11.1182 19.1136 11.198 19.2181 11.198 19.3373V26.4267C11.198 26.549 11.114 26.6553 10.995 26.6837L6.62551 27.7245C6.45946 27.764 6.30005 27.6381 6.30005 27.4674V18.1478Z" fill="#040404" fill-opacity="0.6"/>
</svg>
