<svg width="42" height="36" viewBox="0 0 42 36" fill="none" xmlns="http://www.w3.org/2000/svg">
<rect y="33.2933" width="25" height="2" rx="1" fill="#040404" fill-opacity="0.6"/>
<rect y="24.7933" width="15" height="2" rx="1" fill="#040404" fill-opacity="0.6"/>
<rect y="15.7933" width="10" height="2" rx="1" fill="#040404" fill-opacity="0.6"/>
<path d="M35.1896 33.025L30.8932 26.4675C33.5666 24.2818 35.3009 21.1548 35.7395 17.7296C36.1782 14.3044 35.2878 10.8413 33.2515 8.05235C31.2152 5.26345 28.1877 3.36073 24.7916 2.73543C21.3955 2.11013 17.8889 2.80979 14.9928 4.69053C12.0968 6.57127 10.0313 9.49014 9.22124 12.847C8.41116 16.2038 8.918 19.7434 10.6376 22.738C12.3571 25.7326 15.1587 27.9546 18.4662 28.947C21.7737 29.9395 25.3357 29.627 28.4199 28.0737L32.6723 34.6219C32.7795 34.7884 32.9186 34.9321 33.0815 35.0446C33.2445 35.1571 33.4282 35.2362 33.6219 35.2774C33.8156 35.3186 34.0156 35.321 34.2102 35.2845C34.4049 35.248 34.5904 35.1733 34.7561 35.0648C35.0787 34.8474 35.3043 34.5131 35.3852 34.1326C35.4661 33.752 35.396 33.3549 35.1896 33.025ZM20.1874 26.3239C18.1557 25.892 16.2978 24.8674 14.8484 23.3796C13.3991 21.8919 12.4235 20.0077 12.0449 17.9654C11.6664 15.9232 11.902 13.8145 12.7219 11.9061C13.5418 9.99777 14.9092 8.37538 16.6512 7.24414C18.3931 6.1129 20.4314 5.52361 22.5083 5.5508C24.5852 5.57799 26.6073 6.22043 28.3191 7.39688C30.0308 8.57333 31.3553 10.231 32.1249 12.1601C32.8946 14.0893 33.0749 16.2034 32.6431 18.2351C32.064 20.9594 30.4264 23.3422 28.0905 24.8591C25.7546 26.3761 22.9118 26.903 20.1874 26.3239Z" fill="#040404" fill-opacity="0.6"/>
</svg>
