<svg width="30" height="33" viewBox="0 0 30 33" fill="none" xmlns="http://www.w3.org/2000/svg">
<path d="M0 29.0625V12.1875C0 11.5937 0.133125 11.0312 0.399375 10.5C0.665624 9.96875 1.0325 9.53125 1.5 9.1875L12.75 0.75C13.4062 0.25 14.1562 0 15 0C15.8437 0 16.5937 0.25 17.25 0.75L28.5 9.1875C28.9687 9.53125 29.3362 9.96875 29.6025 10.5C29.8687 11.0312 30.0012 11.5937 30 12.1875V29.0625C30 30.0937 29.6325 30.9769 28.8975 31.7119C28.1625 32.4469 27.28 32.8137 26.25 32.8125H20.625C20.0937 32.8125 19.6487 32.6325 19.29 32.2725C18.9312 31.9125 18.7512 31.4675 18.75 30.9375V21.5625C18.75 21.0312 18.57 20.5862 18.21 20.2275C17.85 19.8687 17.405 19.6887 16.875 19.6875H13.125C12.5937 19.6875 12.1487 19.8675 11.79 20.2275C11.4312 20.5875 11.2512 21.0325 11.25 21.5625V30.9375C11.25 31.4687 11.07 31.9144 10.71 32.2744C10.35 32.6344 9.905 32.8137 9.375 32.8125H3.75C2.71875 32.8125 1.83625 32.4456 1.1025 31.7119C0.36875 30.9781 0.00125 30.095 0 29.0625Z" fill="white"/>
<path d="M15 1.5C15.5233 1.5 15.9522 1.64723 16.3408 1.94336L16.3496 1.9502L27.5996 10.3877L27.6133 10.3975C27.8856 10.5973 28.0996 10.8485 28.2617 11.1719C28.423 11.4937 28.5008 11.8254 28.5 12.1846V29.0625C28.5 29.6924 28.2931 30.1952 27.8369 30.6514C27.3808 31.1075 26.8793 31.3132 26.252 31.3125H20.625C20.4724 31.3125 20.4159 31.2774 20.3525 31.2139C20.3028 31.164 20.2702 31.1176 20.2568 31.0332L20.25 30.9336V21.5625C20.25 20.6527 19.9249 19.8191 19.2686 19.165C18.6561 18.5547 17.8885 18.2312 17.0479 18.1914L16.8789 18.1875H13.125C12.2152 18.1875 11.3816 18.5126 10.7275 19.1689C10.1172 19.7814 9.79371 20.549 9.75391 21.3896L9.75 21.5586V30.9375C9.75 31.0902 9.71477 31.1485 9.64941 31.2139C9.58432 31.279 9.52782 31.3128 9.37891 31.3125H3.75C3.11938 31.3125 2.61749 31.1058 2.16309 30.6514C1.76538 30.2537 1.55626 29.8187 1.50977 29.292L1.5 29.0605V12.1875C1.5 11.8273 1.57845 11.4947 1.74023 11.1719C1.90285 10.8474 2.11701 10.5953 2.38867 10.3955L2.40039 10.3877L13.6504 1.9502L13.6592 1.94336C14.0479 1.64723 14.4767 1.5 15 1.5Z" stroke="#040404" stroke-opacity="0.6" stroke-width="3"/>
</svg>
