<svg width="30" height="33" viewBox="0 0 30 33" fill="none" xmlns="http://www.w3.org/2000/svg">
<path d="M15 1.5C15.5233 1.5 15.9522 1.64723 16.3408 1.94336L16.3496 1.9502L27.5996 10.3877L27.6133 10.3975C27.8856 10.5973 28.0996 10.8485 28.2617 11.1719C28.423 11.4937 28.5008 11.8254 28.5 12.1846V29.0625C28.5 29.6924 28.2931 30.1952 27.8369 30.6514C27.3808 31.1075 26.8793 31.3132 26.252 31.3125H20.625C20.4724 31.3125 20.4159 31.2774 20.3525 31.2139C20.3028 31.164 20.2702 31.1176 20.2568 31.0332L20.25 30.9336V21.5625C20.25 20.6527 19.9249 19.8191 19.2686 19.165C18.6561 18.5547 17.8885 18.2312 17.0479 18.1914L16.8789 18.1875H13.125C12.2152 18.1875 11.3816 18.5126 10.7275 19.1689C10.1172 19.7814 9.79371 20.549 9.75391 21.3896L9.75 21.5586V30.9375C9.75 31.0902 9.71477 31.1485 9.64941 31.2139C9.58432 31.279 9.52782 31.3128 9.37891 31.3125H3.75C3.11938 31.3125 2.61749 31.1058 2.16309 30.6514C1.76538 30.2537 1.55626 29.8187 1.50977 29.292L1.5 29.0605V12.1875C1.5 11.8273 1.57845 11.4947 1.74023 11.1719C1.90285 10.8474 2.11701 10.5953 2.38867 10.3955L2.40039 10.3877L13.6504 1.9502L13.6592 1.94336C14.0479 1.64723 14.4767 1.5 15 1.5Z" fill="white" stroke="#7D1427" stroke-width="3"/>
</svg>
